<svg width="16" height="10" viewBox="0 0 16 10" fill="none" xmlns="http://www.w3.org/2000/svg">
<path fill-rule="evenodd" clip-rule="evenodd" d="M15.059 0H14.1178C13.598 0 13.1766 0.408992 13.1766 0.91351V8.83059C13.1766 9.33511 13.598 9.7441 14.1178 9.7441H15.059C15.5788 9.7441 16.0002 9.33511 16.0002 8.83059V0.91351C16.0002 0.408992 15.5788 0 15.059 0ZM9.72529 2.13145H10.6665C11.1863 2.13145 11.6077 2.54044 11.6077 3.04496V8.83052C11.6077 9.33504 11.1863 9.74403 10.6665 9.74403H9.72529C9.20548 9.74403 8.7841 9.33504 8.7841 8.83052V3.04496C8.7841 2.54044 9.20548 2.13145 9.72529 2.13145ZM6.27488 4.26312H5.3337C4.81389 4.26312 4.39251 4.67211 4.39251 5.17663V8.83067C4.39251 9.33519 4.81389 9.74418 5.3337 9.74418H6.27488C6.79469 9.74418 7.21607 9.33519 7.21607 8.83067V5.17663C7.21607 4.67211 6.79469 4.26312 6.27488 4.26312ZM1.88237 6.09007H0.941186C0.421384 6.09007 0 6.49906 0 7.00357V8.83059C0 9.33511 0.421384 9.7441 0.941186 9.7441H1.88237C2.40218 9.7441 2.82356 9.33511 2.82356 8.83059V7.00357C2.82356 6.49906 2.40218 6.09007 1.88237 6.09007Z" fill="#414042"/>
</svg>
