<svg width="14" height="10" viewBox="0 0 14 10" fill="none" xmlns="http://www.w3.org/2000/svg">
<path fill-rule="evenodd" clip-rule="evenodd" d="M7.00048 2.02452C9.03179 2.02461 10.9854 2.78153 12.4576 4.13884C12.5685 4.24363 12.7457 4.24231 12.8548 4.13588L13.9145 3.09872C13.9698 3.04474 14.0006 2.97162 14.0002 2.89554C13.9997 2.81946 13.968 2.74669 13.9121 2.69334C10.0481 -0.89778 3.95224 -0.89778 0.0882531 2.69334C0.0322806 2.74665 0.000522519 2.8194 6.39012e-06 2.89548C-0.000509739 2.97156 0.0302586 3.0447 0.085503 3.09872L1.14551 4.13588C1.25463 4.24247 1.43196 4.24379 1.54275 4.13884C3.01511 2.78144 4.96897 2.02452 7.00048 2.02452ZM7.00048 5.39884C8.11655 5.39877 9.1928 5.80107 10.0201 6.52756C10.132 6.63066 10.3083 6.62843 10.4173 6.52252L11.4758 5.48537C11.5316 5.43096 11.5625 5.35716 11.5617 5.28047C11.5609 5.20379 11.5284 5.13061 11.4715 5.07732C8.95226 2.80472 5.05084 2.80472 2.53157 5.07732C2.47466 5.13061 2.44219 5.20382 2.44144 5.28054C2.4407 5.35725 2.47173 5.43104 2.52759 5.48537L3.58577 6.52252C3.69485 6.62843 3.87111 6.63066 3.98301 6.52756C4.80975 5.80155 5.88515 5.39929 7.00048 5.39884ZM9.1208 7.66916C9.12242 7.74606 9.09125 7.82021 9.03464 7.87409L7.20368 9.66599C7.15001 9.71866 7.07683 9.7483 7.00048 9.7483C6.92413 9.7483 6.85095 9.71866 6.79728 9.66599L4.96602 7.87409C4.90945 7.82017 4.87833 7.746 4.88 7.6691C4.88168 7.59219 4.91601 7.51937 4.97488 7.46782C6.1442 6.5087 7.85677 6.5087 9.02608 7.46782C9.08491 7.51941 9.11918 7.59226 9.1208 7.66916Z" fill="#414042"/>
</svg>
